<?xml version="1.0" encoding="UTF-8" standalone="no"?>
<!-- Created with Inkscape (http://www.inkscape.org/) -->

<svg
   xmlns:dc="http://purl.org/dc/elements/1.1/"
   xmlns:cc="http://creativecommons.org/ns#"
   xmlns:rdf="http://www.w3.org/1999/02/22-rdf-syntax-ns#"
   xmlns:svg="http://www.w3.org/2000/svg"
   xmlns="http://www.w3.org/2000/svg"
   xmlns:sodipodi="http://sodipodi.sourceforge.net/DTD/sodipodi-0.dtd"
   xmlns:inkscape="http://www.inkscape.org/namespaces/inkscape"
   width="110.28539mm"
   height="150.73831mm"
   viewBox="0 0 390.77501 534.11213"
   id="svg2"
   version="1.1"
   inkscape:version="0.91 r13725"
   sodipodi:docname="golang.svg">
  <defs
     id="defs4" />
  <sodipodi:namedview
     id="base"
     pagecolor="#ffffff"
     bordercolor="#666666"
     borderopacity="1.0"
     inkscape:pageopacity="0.0"
     inkscape:pageshadow="2"
     inkscape:zoom="0.35"
     inkscape:cx="-318.88622"
     inkscape:cy="-108.48871"
     inkscape:document-units="px"
     inkscape:current-layer="layer1"
     showgrid="false"
     inkscape:window-width="1440"
     inkscape:window-height="825"
     inkscape:window-x="0"
     inkscape:window-y="24"
     inkscape:window-maximized="1"
     fit-margin-top="0"
     fit-margin-left="0"
     fit-margin-right="0"
     fit-margin-bottom="0" />
  <metadata
     id="metadata7">
    <rdf:RDF>
      <cc:Work
         rdf:about="">
        <dc:format>image/svg+xml</dc:format>
        <dc:type
           rdf:resource="http://purl.org/dc/dcmitype/StillImage" />
        <dc:title></dc:title>
      </cc:Work>
    </rdf:RDF>
  </metadata>
  <g
     inkscape:label="Layer 1"
     inkscape:groupmode="layer"
     id="layer1"
     transform="translate(872.92959,-112.3622)">
    <path
       style="fill:#d5c2a3;fill-opacity:1;fill-rule:evenodd;stroke:none;stroke-width:1px;stroke-linecap:butt;stroke-linejoin:miter;stroke-opacity:1"
       d="m -529.31993,187.16655 c 38.83474,-10.60294 18.86697,46.72765 11.11167,40.91118 -6.47476,-4.85607 -10.38941,-35.03612 -12.6269,-40.4061"
       id="path4264"
       inkscape:connector-curvature="0" />
    <path
       style="opacity:0.5;fill:#000000;fill-opacity:1;fill-rule:evenodd;stroke:none;stroke-width:1px;stroke-linecap:butt;stroke-linejoin:miter;stroke-opacity:1"
       d="m -520.668,196.87962 c 11.71648,-1.32198 5.81344,20.01656 4.44467,16.36447 -1.13616,-3.03146 -4.15576,-14.01445 -5.05076,-16.16244"
       id="path4264-6"
       inkscape:connector-curvature="0"
       sodipodi:nodetypes="csc" />
    <path
       style="opacity:0.1;fill:#000000;fill-opacity:1;fill-rule:evenodd;stroke:#000000;stroke-width:1px;stroke-linecap:butt;stroke-linejoin:miter;stroke-opacity:1"
       d="m -671.55856,637.41292 c -46.7902,22.47145 -52.5424,-5.05558 -85.863,-16.16245 -9.9278,-3.30925 -80.9541,3.45601 -73.7411,-18.18274 0.4501,-1.35057 17.1781,3.53553 20.203,3.53553 15.6574,0 31.3147,0 46.9721,0 39.8708,0 218.8187,-17.76557 248.4975,2.02031 1.1064,0.73758 0.3935,2.24352 0,3.03046 -8.6301,17.26023 -42.8052,-1.13639 -53.5381,9.59644 -5.5741,5.57412 -97.8135,19.11055 -102.5304,16.16245 z"
       id="path4720-8"
       inkscape:connector-curvature="0" />
    <path
       style="fill:#e7ddcd;fill-opacity:1;fill-rule:evenodd;stroke:none;stroke-width:1px;stroke-linecap:butt;stroke-linejoin:miter;stroke-opacity:1"
       d="m -788.85333,595.49657 c -4.07576,-3.15216 -5.61955,-12.30473 -10.52586,-12.30473 -3.23059,0 -6.28516,4.96956 -9.02215,6.83597 -3.47713,2.37109 -19.90101,0.27923 -21.55294,4.78516 -4.96621,13.54614 65.65845,28.59388 41.10095,0.6836 z"
       id="path4238"
       inkscape:connector-curvature="0" />
    <path
       style="fill:#e0d4bf;fill-opacity:1;fill-rule:evenodd;stroke:none;stroke-width:1px;stroke-linecap:butt;stroke-linejoin:miter;stroke-opacity:1"
       d="m -533.21429,595.21935 c -3.26383,10.82726 2.19912,13.57143 12.14286,13.57143 9.06308,0 30.52154,-6.48529 27.5,-18.57143 -1.01073,-4.04291 -4.35638,-7.06837 -5.35714,-11.07143 -1.35701,-5.42805 -6.71543,-12.28629 -12.14286,-15 -15.52491,-7.76246 -24.80509,20.42249 -22.14286,31.07143 z"
       id="path4385"
       inkscape:connector-curvature="0" />
    <path
       style="opacity:1;fill:#ceb995;fill-opacity:1;fill-rule:evenodd;stroke:none;stroke-width:1px;stroke-linecap:butt;stroke-linejoin:miter;stroke-opacity:1"
       d="m -795.92786,611.18264 c -60.06281,-132.81218 -174.88818,-498.82044 90.21357,-498.82044 42.70563,0 137.05433,8.36304 162.85714,41.16709 62.3783,79.3038 10.70988,141.64827 34.28571,221.57576 61.25542,207.66996 35.23541,280.21 -287.35642,236.07759 z"
       id="path4167"
       inkscape:connector-curvature="0"
       sodipodi:nodetypes="csssc" />
    <circle
       style="color:#000000;clip-rule:nonzero;display:inline;overflow:visible;visibility:visible;opacity:1;isolation:auto;mix-blend-mode:normal;color-interpolation:sRGB;color-interpolation-filters:linearRGB;solid-color:#000000;solid-opacity:1;fill:#ffffff;fill-opacity:1;fill-rule:nonzero;stroke:none;stroke-width:21.13199997;stroke-linecap:butt;stroke-linejoin:miter;stroke-miterlimit:4;stroke-dasharray:none;stroke-dashoffset:0;stroke-opacity:1;color-rendering:auto;image-rendering:auto;shape-rendering:auto;text-rendering:auto;enable-background:accumulate"
       id="path4169"
       cx="-738.57147"
       cy="190.93364"
       r="0" />
    <g
       id="g4412"
       transform="matrix(1.1,0,0,1.1,84.933179,-11.312904)">
      <ellipse
         ry="64.394676"
         rx="55.106777"
         style="color:#000000;clip-rule:nonzero;display:inline;overflow:visible;visibility:visible;opacity:0.05;isolation:auto;mix-blend-mode:normal;color-interpolation:sRGB;color-interpolation-filters:linearRGB;solid-color:#000000;solid-opacity:1;fill:#000000;fill-opacity:1;fill-rule:nonzero;stroke:none;stroke-width:21.13199997;stroke-linecap:butt;stroke-linejoin:miter;stroke-miterlimit:4;stroke-dasharray:none;stroke-dashoffset:0;stroke-opacity:1;color-rendering:auto;image-rendering:auto;shape-rendering:auto;text-rendering:auto;enable-background:accumulate"
         id="circle4459"
         cx="-739.02557"
         cy="200.25725" />
      <circle
         r="50"
         cy="192.15302"
         cx="-738.15308"
         id="path4169-6-3"
         style="color:#000000;clip-rule:nonzero;display:inline;overflow:visible;visibility:visible;opacity:1;isolation:auto;mix-blend-mode:normal;color-interpolation:sRGB;color-interpolation-filters:linearRGB;solid-color:#000000;solid-opacity:1;fill:#ffffff;fill-opacity:1;fill-rule:nonzero;stroke:none;stroke-width:21.13199997;stroke-linecap:butt;stroke-linejoin:miter;stroke-miterlimit:4;stroke-dasharray:none;stroke-dashoffset:0;stroke-opacity:1;color-rendering:auto;image-rendering:auto;shape-rendering:auto;text-rendering:auto;enable-background:accumulate" />
      <circle
         r="20"
         cy="203.89847"
         cx="-713.52069"
         id="path4186"
         style="color:#000000;clip-rule:nonzero;display:inline;overflow:visible;visibility:visible;opacity:1;isolation:auto;mix-blend-mode:normal;color-interpolation:sRGB;color-interpolation-filters:linearRGB;solid-color:#000000;solid-opacity:1;fill:#4d4d4d;fill-opacity:1;fill-rule:nonzero;stroke:none;stroke-width:21.13199997;stroke-linecap:butt;stroke-linejoin:miter;stroke-miterlimit:4;stroke-dasharray:none;stroke-dashoffset:0;stroke-opacity:1;color-rendering:auto;image-rendering:auto;shape-rendering:auto;text-rendering:auto;enable-background:accumulate" />
      <circle
         r="5"
         cy="205.54721"
         cx="-701.05823"
         id="path4169-5"
         style="color:#000000;clip-rule:nonzero;display:inline;overflow:visible;visibility:visible;opacity:1;isolation:auto;mix-blend-mode:normal;color-interpolation:sRGB;color-interpolation-filters:linearRGB;solid-color:#000000;solid-opacity:1;fill:#ffffff;fill-opacity:1;fill-rule:nonzero;stroke:none;stroke-width:21.13199997;stroke-linecap:butt;stroke-linejoin:miter;stroke-miterlimit:4;stroke-dasharray:none;stroke-dashoffset:0;stroke-opacity:1;color-rendering:auto;image-rendering:auto;shape-rendering:auto;text-rendering:auto;enable-background:accumulate" />
    </g>
    <g
       id="g4418"
       transform="translate(8.5714286,3.5714286)">
      <ellipse
         ry="60.101528"
         rx="54.293144"
         style="color:#000000;clip-rule:nonzero;display:inline;overflow:visible;visibility:visible;opacity:0.05;isolation:auto;mix-blend-mode:normal;color-interpolation:sRGB;color-interpolation-filters:linearRGB;solid-color:#000000;solid-opacity:1;fill:#000000;fill-opacity:1;fill-rule:nonzero;stroke:none;stroke-width:21.13199997;stroke-linecap:butt;stroke-linejoin:miter;stroke-miterlimit:4;stroke-dasharray:none;stroke-dashoffset:0;stroke-opacity:1;color-rendering:auto;image-rendering:auto;shape-rendering:auto;text-rendering:auto;enable-background:accumulate"
         id="circle4459-2"
         cx="-580.10974"
         cy="207.44882" />
      <circle
         r="50"
         cy="202.36223"
         cx="-580"
         id="path4169-6"
         style="color:#000000;clip-rule:nonzero;display:inline;overflow:visible;visibility:visible;opacity:1;isolation:auto;mix-blend-mode:normal;color-interpolation:sRGB;color-interpolation-filters:linearRGB;solid-color:#000000;solid-opacity:1;fill:#ffffff;fill-opacity:1;fill-rule:nonzero;stroke:none;stroke-width:21.13199997;stroke-linecap:butt;stroke-linejoin:miter;stroke-miterlimit:4;stroke-dasharray:none;stroke-dashoffset:0;stroke-opacity:1;color-rendering:auto;image-rendering:auto;shape-rendering:auto;text-rendering:auto;enable-background:accumulate" />
      <circle
         r="20"
         cy="214.30942"
         cx="-554.98602"
         id="path4186-3"
         style="color:#000000;clip-rule:nonzero;display:inline;overflow:visible;visibility:visible;opacity:1;isolation:auto;mix-blend-mode:normal;color-interpolation:sRGB;color-interpolation-filters:linearRGB;solid-color:#000000;solid-opacity:1;fill:#4d4d4d;fill-opacity:1;fill-rule:nonzero;stroke:none;stroke-width:21.13199997;stroke-linecap:butt;stroke-linejoin:miter;stroke-miterlimit:4;stroke-dasharray:none;stroke-dashoffset:0;stroke-opacity:1;color-rendering:auto;image-rendering:auto;shape-rendering:auto;text-rendering:auto;enable-background:accumulate" />
      <circle
         r="5"
         cy="217.3609"
         cx="-542.23657"
         id="path4169-5-5"
         style="color:#000000;clip-rule:nonzero;display:inline;overflow:visible;visibility:visible;opacity:1;isolation:auto;mix-blend-mode:normal;color-interpolation:sRGB;color-interpolation-filters:linearRGB;solid-color:#000000;solid-opacity:1;fill:#ffffff;fill-opacity:1;fill-rule:nonzero;stroke:none;stroke-width:21.13199997;stroke-linecap:butt;stroke-linejoin:miter;stroke-miterlimit:4;stroke-dasharray:none;stroke-dashoffset:0;stroke-opacity:1;color-rendering:auto;image-rendering:auto;shape-rendering:auto;text-rendering:auto;enable-background:accumulate" />
    </g>
    <g
       id="g4402"
       transform="translate(26.428572,5.7142857)">
      <path
         style="opacity:0.1;fill:#000000;fill-opacity:1;fill-rule:evenodd;stroke:none;stroke-width:1px;stroke-linecap:butt;stroke-linejoin:miter;stroke-opacity:1"
         d="m -651.04332,304.2178 c -1.00965,0.008 -9.86127,2.50345 -11.11167,-0.63357 -0.79708,-1.99971 0.25253,-7.87531 0.25253,-10.45389 0,-3.68012 -3.04802,-8.82591 -1.51522,-12.67138 1.77963,-4.46477 14.78978,0.0409 16.16244,3.48463 1.50436,3.77416 1.12152,18.55058 -0.50508,20.591 -0.98492,1.23549 -4.08613,-0.31679 -5.05076,-0.31679"
         id="path4378"
         inkscape:connector-curvature="0" />
      <path
         inkscape:connector-curvature="0"
         id="path4336"
         d="m -651.04332,302.2178 c -1.00965,0.008 -9.86127,2.50345 -11.11167,-0.63357 -0.79708,-1.99971 0.25253,-7.87531 0.25253,-10.45389 0,-3.68012 -3.04802,-8.82591 -1.51522,-12.67138 1.77963,-4.46477 14.78978,0.0409 16.16244,3.48463 1.50436,3.77416 1.12152,18.55058 -0.50508,20.591 -0.98492,1.23549 -4.08613,-0.31679 -5.05076,-0.31679"
         style="fill:#ffffff;fill-opacity:1;fill-rule:evenodd;stroke:none;stroke-width:1px;stroke-linecap:butt;stroke-linejoin:miter;stroke-opacity:1" />
      <path
         style="opacity:0.1;fill:#000000;fill-opacity:1;fill-rule:evenodd;stroke:none;stroke-width:1px;stroke-linecap:butt;stroke-linejoin:miter;stroke-opacity:1"
         d="m -675.03444,280.77575 c -6.51852,-0.98114 -5.4777,11.06471 -3.78807,17.42314 1.18261,4.45043 2.81879,7.28605 6.81853,7.28605 2.47665,0 4.82984,1.08892 7.07107,-0.31679 4.16306,-2.61108 8.85307,-34.58242 -10.10153,-24.3924 z"
         id="path4361"
         inkscape:connector-curvature="0" />
      <path
         inkscape:connector-curvature="0"
         id="path4334"
         d="m -675.03444,278.77575 c -6.51852,-0.98114 -5.4777,11.06471 -3.78807,17.42314 1.18261,4.45043 2.81879,7.28605 6.81853,7.28605 2.47665,0 4.82984,1.08892 7.07107,-0.31679 4.16306,-2.61108 8.85307,-34.58242 -10.10153,-24.3924 z"
         style="fill:#ffffff;fill-opacity:1;fill-rule:evenodd;stroke:none;stroke-width:1px;stroke-linecap:butt;stroke-linejoin:miter;stroke-opacity:1" />
      <path
         style="opacity:0.2;fill:#000000;fill-opacity:1;fill-rule:evenodd;stroke:none;stroke-width:1px;stroke-linecap:butt;stroke-linejoin:miter;stroke-opacity:1"
         d="m -663.16515,262.65515 c -9.34307,-0.83368 -40.53833,-2.85595 -33.84011,13.88959 1.69604,4.24009 5.20105,7.3737 9.59645,8.83884 8.86875,2.95625 23.31241,-6.51339 27.7792,-3.53554 5.30463,3.53643 20.54216,9.93198 26.76904,6.81853 3.87085,-1.93542 3.02406,-4.78542 4.54569,-7.82868 1.10757,-2.21515 -0.0201,-4.60599 -0.75762,-6.81853 -4.335,-13.005 -22.35774,-11.36421 -34.09265,-11.36421 z"
         id="path4389"
         inkscape:connector-curvature="0" />
      <path
         inkscape:connector-curvature="0"
         id="path4322"
         d="m -663.16515,260.65515 c -9.34307,-0.83368 -40.53833,-2.85595 -33.84011,13.88959 1.69604,4.24009 5.20105,7.3737 9.59645,8.83884 8.86875,2.95625 23.31241,-6.51339 27.7792,-3.53554 5.30463,3.53643 20.54216,9.93198 26.76904,6.81853 3.87085,-1.93542 3.02406,-4.78542 4.54569,-7.82868 1.10757,-2.21515 -0.0201,-4.60599 -0.75762,-6.81853 -4.335,-13.005 -22.35774,-11.36421 -34.09265,-11.36421 z"
         style="fill:#c2a77a;fill-opacity:1;fill-rule:evenodd;stroke:none;stroke-width:1px;stroke-linecap:butt;stroke-linejoin:miter;stroke-opacity:1" />
      <path
         style="opacity:0.2;fill:#000000;fill-opacity:1;fill-rule:evenodd;stroke:none;stroke-width:1.41379488px;stroke-linecap:butt;stroke-linejoin:miter;stroke-opacity:1"
         d="m -672.18203,253.52109 c -8.17737,1.65748 -9.57006,5.14495 -3.04865,9.61715 21.82052,14.96391 49.9151,-12.08943 3.04865,-9.61715 z"
         id="path4406"
         inkscape:connector-curvature="0" />
      <path
         inkscape:connector-curvature="0"
         id="path4258"
         d="m -672.18203,251.52109 c -8.17737,1.65748 -9.57006,5.14495 -3.04865,9.61715 21.82052,14.96391 49.9151,-12.08943 3.04865,-9.61715 z"
         style="fill:#4d4d4d;fill-opacity:1;fill-rule:evenodd;stroke:none;stroke-width:1.41379488px;stroke-linecap:butt;stroke-linejoin:miter;stroke-opacity:1" />
    </g>
    <path
       style="opacity:0.2;fill:#000000;fill-opacity:1;fill-rule:evenodd;stroke:none;stroke-width:1px;stroke-linecap:butt;stroke-linejoin:miter;stroke-opacity:1"
       d="m -826.83008,158.8125 c -1.1081,0.0299 -2.21278,0.14481 -3.30859,0.32227 -10.70106,11.877 -19.10034,25.64867 -25.51758,40.8789 2.62493,5.84526 8.02888,11.14267 17.11523,14.91211 l 1.41407,0.52149 c 13.01878,6.60731 33.04802,-44.05596 28.95507,-48.38477 -5.7006,-6.02911 -12.24086,-8.42292 -18.6582,-8.25 z"
       id="path4429"
       inkscape:connector-curvature="0" />
    <path
       style="fill:#c8b088;fill-opacity:1;fill-rule:evenodd;stroke:none;stroke-width:1px;stroke-linecap:butt;stroke-linejoin:miter;stroke-opacity:1"
       d="m -834.54053,212.92544 c -46.11481,-19.13057 2.30355,-77.54398 30.36807,-47.86221 4.09295,4.32881 -15.9358,54.99093 -28.95458,48.38362"
       id="path4262"
       inkscape:connector-curvature="0"
       sodipodi:nodetypes="csc" />
    <path
       sodipodi:nodetypes="csc"
       inkscape:connector-curvature="0"
       id="path4177"
       d="m -820.93428,200.5459 c -18.44592,-7.65223 0.92142,-31.01759 12.14723,-19.14488 1.63718,1.73152 -6.37432,21.99637 -11.58183,19.35344"
       style="opacity:0.5;fill:#000000;fill-opacity:1;fill-rule:evenodd;stroke:none;stroke-width:1px;stroke-linecap:butt;stroke-linejoin:miter;stroke-opacity:1" />
    <g
       id="g4360"
       transform="matrix(1.1,0,0,1.1,64.548138,-47.192813)">
      <path
         id="path4320"
         d="m -674.45312,376.76172 c -2.50686,-0.0626 -4.70809,0.31841 -6.36915,1.23437 -2.12197,1.17014 -2.94183,3.46308 -5.05078,5.01368 -2.31821,1.70446 -4.82811,3.50979 -4.54687,7.24218 2.74858,6.06268 -0.97325,9.70562 0.94922,13.85743 -1.70653,0.046 -3.36686,0.11702 -4.63672,0.75195 -10.72664,5.36332 -15.27365,0.56934 -15.63867,-7.00195 -0.36498,8.67579 3.99498,14.82379 15.63867,9.00195 1.60127,-0.80064 3.8147,-0.71673 5.9707,-0.80274 0.58336,0.64936 1.31015,1.3165 2.26367,2.01758 2.24417,1.65003 30.92014,4.04449 34.34571,2.78516 4.09592,-1.50575 5.83584,-4.51676 7.57617,-8.35547 5.49073,-12.11116 -16.96494,-25.40622 -30.50195,-25.74414 z"
         style="opacity:0.1;fill:#000000;fill-opacity:1;fill-rule:evenodd;stroke:none;stroke-width:1px;stroke-linecap:butt;stroke-linejoin:miter;stroke-opacity:1"
         inkscape:connector-curvature="0" />
      <path
         inkscape:connector-curvature="0"
         id="path4297"
         d="m -688.41896,388.25185 c -0.28124,-3.73239 2.22748,-5.537 4.54569,-7.24146 2.10895,-1.5506 2.92879,-3.84318 5.05076,-5.01332 10.63077,-5.86219 43.3781,10.15559 36.87057,24.50956 -1.74033,3.83871 -3.48023,6.84977 -7.57615,8.35552 -3.42557,1.25933 -32.10101,-1.13515 -34.34518,-2.78518 -8.35978,-6.14651 -0.9696,-9.93718 -4.54569,-17.82512 z"
         style="opacity:0.98999999;fill:#e1d5bf;fill-opacity:1;fill-rule:evenodd;stroke:none;stroke-width:1px;stroke-linecap:butt;stroke-linejoin:miter;stroke-opacity:1" />
    </g>
    <g
       id="g4356"
       transform="matrix(0.91236836,-0.34227577,0.35124727,0.93628274,-172.72006,-179.55626)">
      <path
         id="path4303-6"
         d="m -542.04883,379.70117 c -4.44041,0.10627 -8.93214,1.43285 -10.4707,5.25195 -0.7027,1.74426 -2.09427,18.08888 -1.79102,18.58985 0.24555,0.40564 0.72342,0.81768 1.36524,1.22656 -3.78397,1.06441 -7.54949,2.61566 -11.47657,1.30664 -4.41241,-1.4708 -6.41307,-4.48341 -6.70507,-8.06055 -0.36515,4.43364 1.49,8.32219 6.70507,10.06055 4.88408,1.62802 9.52011,-1.17551 14.25,-1.95117 6.61838,2.64365 18.85512,4.66827 22.34766,3.18164 4.57105,-1.94571 7.00847,-2.40375 10.45508,-5.12695 6.72077,-5.31012 -0.88119,-15.70898 -6.38867,-17.92774 -3.68574,-1.48486 -8.44971,-5.90394 -12.31055,-5.59179 l 1.30859,-0.10743 c -1.97962,-0.5398 -4.62481,-0.91532 -7.28906,-0.85156 z"
         style="opacity:0.1;fill:#000000;fill-opacity:1;fill-rule:evenodd;stroke:none;stroke-width:1px;stroke-linecap:butt;stroke-linejoin:miter;stroke-opacity:1"
         inkscape:connector-curvature="0" />
      <path
         inkscape:connector-curvature="0"
         id="path4303"
         d="m -532.41706,377.99768 c -5.42177,-1.50777 -15.71162,-1.79148 -18.23989,4.60895 -0.7217,1.827 -2.1506,18.94662 -1.83915,19.47135 2.24431,3.78122 22.48999,8.08261 27.20253,6.03686 4.69467,-2.03801 7.19762,-2.51795 10.73743,-5.37032 6.90252,-5.56202 -0.90646,-16.45454 -6.56288,-18.77855 -3.78541,-1.5553 -8.67713,-6.18441 -12.64238,-5.85745"
         style="fill:#e1d4bf;fill-opacity:1;fill-rule:evenodd;stroke:none;stroke-width:1px;stroke-linecap:butt;stroke-linejoin:miter;stroke-opacity:1" />
    </g>
    <path
       inkscape:connector-curvature="0"
       id="path4370"
       d="m -670.35714,617.14792 c -2.10246,-10.0257 -12.53772,-15.90229 -21.78572,-18.21429 -17.87873,-4.46968 -47.32422,22.141 -27.5,35.35715 11.9286,7.95239 59.08064,3.91356 50.35715,-15.71429"
       style="opacity:0.1;fill:#000000;fill-opacity:1;fill-rule:evenodd;stroke:none;stroke-width:1px;stroke-linecap:butt;stroke-linejoin:miter;stroke-opacity:1" />
    <path
       style="fill:#e0d4bf;fill-opacity:1;fill-rule:evenodd;stroke:none;stroke-width:1px;stroke-linecap:butt;stroke-linejoin:miter;stroke-opacity:1"
       d="m -670.35714,619.14792 c -2.10246,-10.0257 -12.53772,-15.90229 -21.78572,-18.21429 -17.87873,-4.46968 -47.32422,22.141 -27.5,35.35715 11.9286,7.95239 59.08064,3.91356 50.35715,-15.71429"
       id="path4368"
       inkscape:connector-curvature="0" />
    <path
       inkscape:connector-curvature="0"
       id="path4387"
       d="m -801.77803,602.98378 c -2.07667,-1.66808 -2.31076,-5.51574 -5.07405,-5.99049 -1.81949,-0.31261 -3.88486,1.39988 -5.55592,1.8892 -2.12296,0.62162 -11.22782,-1.81286 -12.47103,-0.15199 -3.7374,4.99306 34.99443,17.9073 23.101,4.25328 z"
       style="opacity:0.05;fill:#000000;fill-opacity:1;fill-rule:evenodd;stroke:none;stroke-width:1px;stroke-linecap:butt;stroke-linejoin:miter;stroke-opacity:1" />
    <path
       style="opacity:0.1;fill:#ffffff;fill-opacity:1;fill-rule:evenodd;stroke:none;stroke-width:1px;stroke-linecap:butt;stroke-linejoin:miter;stroke-opacity:1"
       d="m -590.77177,401.1984 c -45.32306,1.02797 -47.06461,23.54518 -58.16028,55.2039 -4.39335,12.53535 -8.05977,37.71155 -5.99352,51.46922 2.12223,14.13033 2.8466,28.57195 5.01096,42.98281 8.94385,59.55061 107.41537,60.11106 127.0262,4.15648 18.11447,-51.68516 -16.39734,-61.08541 -23.12285,-105.8657 -2.78246,-18.52641 -21.98717,-55.21439 -47.68633,-48.19065"
       id="path4400"
       inkscape:connector-curvature="0" />
    <circle
       style="color:#000000;clip-rule:nonzero;display:inline;overflow:visible;visibility:visible;opacity:1;isolation:auto;mix-blend-mode:normal;color-interpolation:sRGB;color-interpolation-filters:linearRGB;solid-color:#000000;solid-opacity:1;fill:#ffffff;fill-opacity:1;fill-rule:nonzero;stroke:none;stroke-width:21.13199997;stroke-linecap:butt;stroke-linejoin:miter;stroke-miterlimit:4;stroke-dasharray:none;stroke-dashoffset:0;stroke-opacity:1;color-rendering:auto;image-rendering:auto;shape-rendering:auto;text-rendering:auto;enable-background:accumulate"
       id="path4169-9"
       cx="-1475.4008"
       cy="198.23576"
       r="0" />
  </g>
</svg>
